<svg xmlns="http://www.w3.org/2000/svg" width="256" height="256" viewBox="0 0 256 256"><path fill="#1F4453" d="M0 0h256v256H0z"/><path opacity=".6" fill="#FFF" d="M224.583 22.636l-39.51 144.875-53.532-47.673 51.38-54.22-68.87 47.596-47.513-11.554 158.046-79.024zM128 132.402v48.28l19.26-29.18L128 132.4zm-24.484 33.866l8.257 8.196c-7.683 7.77-15.567 16.97-18.658 29.634l-11.302-2.76c3.812-15.57 13.098-26.376 21.703-35.07zM89.77 233.363c-6.28 0-11.88-2.445-16.57-7.29-12.797 4.528-24.972-.375-31.4-9.516-5.045-7.18-6.172-16.267-3.094-24.98-4.844-4.69-7.288-10.246-7.288-16.54 0-13.71 10.187-24.607 28.45-22.704l1.71 9.8c-5.826.55-11.21.85-14.7 4.34-5.866 5.864-4.105 18.11 6.91 21.36-7.305 7.34-6.598 17.885-1.114 23.672 5.746 6.062 16.712 7.015 24.274-.514 3.378 11.456 15.786 12.485 21.358 6.91 3.443-3.437 3.786-8.735 4.318-14.48l9.88 2.006c1.764 17.383-8.85 27.937-22.734 27.937zm-29.132-61.736l2.76 11.3c15.41-3.77 25.927-12.73 35.028-21.702l-8.236-8.18c-7.694 7.606-16.925 15.495-29.552 18.582z"/></svg>