<svg xmlns="http://www.w3.org/2000/svg" width="256" height="256" viewBox="0 0 256 256"><path fill="#1F4453" d="M0 0h256v256H0z"/><path opacity=".6" fill="#FFF" d="M226.585 71.416L196.22 182.754l-41.14-36.638 39.486-41.67-52.93 36.58-36.513-8.88 121.462-60.73zm-74.226 84.357v37.104l14.8-22.426-14.8-14.677zM133.54 181.8l6.346 6.298c-5.904 5.97-11.963 13.042-14.338 22.774l-8.686-2.12c2.93-11.968 10.066-20.272 16.678-26.953zm-10.563 51.563c-4.828 0-9.13-1.88-12.735-5.602-9.835 3.48-19.19-.288-24.13-7.312-3.88-5.518-4.746-12.502-2.38-19.197-3.723-3.603-5.6-7.874-5.6-12.71 0-10.536 7.828-18.912 21.863-17.45l1.314 7.533c-4.478.422-8.616.652-11.298 3.334-4.507 4.507-3.154 13.918 5.31 16.415-5.613 5.642-5.07 13.746-.855 18.193 4.415 4.66 12.842 5.39 18.654-.395 2.596 8.804 12.132 9.595 16.414 5.31 2.646-2.642 2.91-6.713 3.32-11.13l7.593 1.543c1.356 13.36-6.803 21.47-17.47 21.47zm-22.39-47.445l2.122 8.685c11.842-2.9 19.924-9.785 26.918-16.68l-6.33-6.285c-5.912 5.844-13.006 11.908-22.71 14.28z"/><path fill="#9B5C8F" d="M28.286 20.994H146.39c7.473 0 13.523 6.052 13.523 13.526v45.083c0 7.474-6.05 13.524-13.524 13.524h-42.355l5.813 14.237L84.28 93.127H28.344c-7.474 0-13.524-6.05-13.524-13.524V34.52c-.058-7.416 5.992-13.526 13.466-13.526z"/><path fill="#FFF" d="M22.058 33.274c.83-1.126 2.076-1.72 3.736-1.84 3.025-.236 4.747 1.188 5.16 4.272 1.84 12.396 3.857 22.896 5.993 31.497l12.99-24.736c1.187-2.254 2.67-3.44 4.45-3.56 2.61-.177 4.21 1.484 4.864 4.984 1.484 7.89 3.38 14.593 5.635 20.287 1.542-15.066 4.152-25.92 7.83-32.625.89-1.66 2.195-2.49 3.916-2.61 1.365-.117 2.61.297 3.737 1.188 1.128.89 1.72 2.016 1.84 3.38.058 1.067-.12 1.958-.595 2.847-2.312 4.27-4.21 11.45-5.752 21.414-1.484 9.67-2.018 17.202-1.662 22.6.12 1.485-.118 2.79-.712 3.916-.712 1.305-1.78 2.018-3.144 2.136-1.543.118-3.145-.593-4.687-2.194-5.517-5.636-9.906-14.06-13.11-25.27-3.854 7.593-6.703 13.287-8.54 17.083-3.5 6.704-6.467 10.144-8.96 10.322-1.6.118-2.966-1.246-4.15-4.092-3.026-7.77-6.29-22.778-9.79-45.023-.175-1.54.122-2.905.953-3.973zm127.536 9.313c-2.137-3.738-5.28-5.99-9.492-6.88-1.127-.237-2.194-.355-3.203-.355-5.695 0-10.322 2.965-13.942 8.896-3.083 5.042-4.627 10.62-4.627 16.73 0 4.566.952 8.482 2.85 11.744 2.136 3.737 5.278 5.992 9.49 6.88 1.128.24 2.196.356 3.204.356 5.754 0 10.38-2.966 13.94-8.897 3.084-5.1 4.625-10.677 4.625-16.787-.002-4.627-.95-8.482-2.846-11.686zm-7.476 16.43c-.83 3.916-2.313 6.823-4.51 8.78-1.718 1.543-3.32 2.195-4.803 1.9-1.425-.297-2.61-1.543-3.5-3.856-.712-1.838-1.067-3.677-1.067-5.398 0-1.482.118-2.965.415-4.33.534-2.43 1.542-4.804 3.145-7.058 1.958-2.907 4.034-4.093 6.17-3.678 1.423.296 2.61 1.542 3.5 3.855.712 1.84 1.066 3.68 1.066 5.4-.002 1.54-.18 3.023-.416 4.388zM112.4 42.588c-2.136-3.738-5.34-5.99-9.492-6.88-1.127-.237-2.194-.355-3.203-.355-5.695 0-10.32 2.965-13.94 8.896-3.085 5.042-4.628 10.62-4.628 16.73 0 4.566.95 8.482 2.848 11.744 2.135 3.737 5.28 5.992 9.49 6.88 1.126.24 2.195.356 3.204.356 5.753 0 10.38-2.966 13.94-8.897 3.082-5.1 4.626-10.677 4.626-16.787 0-4.627-.948-8.482-2.846-11.686zm-7.475 16.43c-.83 3.916-2.312 6.823-4.508 8.78-1.72 1.543-3.322 2.195-4.805 1.9-1.423-.297-2.61-1.543-3.5-3.856-.713-1.838-1.067-3.677-1.067-5.398 0-1.482.118-2.965.416-4.33.535-2.43 1.543-4.804 3.145-7.058 1.958-2.907 4.034-4.093 6.17-3.678 1.423.296 2.61 1.542 3.5 3.855.71 1.84 1.066 3.68 1.066 5.4 0 1.54-.118 3.023-.415 4.388z"/></svg>
